<svg version="1.1" id="Layer_1" xmlns="http://www.w3.org/2000/svg" xmlns:xlink="http://www.w3.org/1999/xlink"
	 viewBox="0 0 64 64" style="enable-background:new 0 0 64 64;" xml:space="preserve">
<path d="M58,12h-4H42V8c0-2.2-1.8-4-4-4H26c-2.2,0-4,1.8-4,4v4H10H6v4h4v39c0,2.8,2.2,5,5,5h34c2.8,0,5-2.2,5-5V16h4
		V12z M26,8h12v4H26V8z M50,55c0,0.6-0.4,1-1,1H15c-0.6,0-1-0.4-1-1V16h8h20h8V55z"/>
	<rect x="22" y="24" class="st0" width="4" height="24"/>
	<rect x="30" y="24" class="st0" width="4" height="24"/>
	<rect x="38" y="24" class="st0" width="4" height="24"/>
</svg>
