<?xml version="1.0" encoding="utf-8"?>
<!-- Generator: Adobe Illustrator 27.1.1, SVG Export Plug-In . SVG Version: 6.00 Build 0)  -->
<svg version="1.1" id="Layer_1" xmlns="http://www.w3.org/2000/svg" xmlns:xlink="http://www.w3.org/1999/xlink" x="0px" y="0px"
	 width="32px" height="32px" viewBox="0 0 32 32" style="enable-background:new 0 0 32 32;" xml:space="preserve">
<path id="Next-Arrow-Icon-SVG-oikjklgf" d="M22.3,16.8l-9.8,9.8c-0.5,0.5-1.2,0.5-1.7,0c0,0,0,0,0,0l-1.1-1.1
	c-0.5-0.5-0.5-1.2,0-1.7c0,0,0,0,0,0l7.8-7.8L9.7,8.2C9.2,7.7,9.2,7,9.7,6.5c0,0,0,0,0,0l1.1-1.1c0.5-0.5,1.2-0.5,1.7,0c0,0,0,0,0,0
	l9.8,9.8C22.8,15.6,22.8,16.4,22.3,16.8C22.3,16.8,22.3,16.8,22.3,16.8z"/>
</svg>
