<?xml version="1.0" encoding="utf-8"?>
<!-- Generator: Adobe Illustrator 27.1.1, SVG Export Plug-In . SVG Version: 6.00 Build 0)  -->
<svg version="1.1" id="Layer_1" xmlns="http://www.w3.org/2000/svg" xmlns:xlink="http://www.w3.org/1999/xlink" x="0px" y="0px"
	 width="32px" height="32px" viewBox="0 0 32 32" style="enable-background:new 0 0 32 32;" xml:space="preserve">
<path id="Next-Arrow-Icon-SVG-oikjklgf" d="M9.7,15.2l9.8-9.8c0.5-0.5,1.2-0.5,1.7,0c0,0,0,0,0,0l1.1,1.1c0.5,0.5,0.5,1.2,0,1.7
	c0,0,0,0,0,0L14.6,16l7.8,7.8c0.5,0.5,0.5,1.2,0,1.7c0,0,0,0,0,0l-1.1,1.1c-0.5,0.5-1.2,0.5-1.7,0c0,0,0,0,0,0l-9.8-9.8
	C9.2,16.4,9.2,15.6,9.7,15.2C9.7,15.2,9.7,15.2,9.7,15.2z"/>
</svg>
